          <svg xmlns="http://www.w3.org/2000/svg" width="38" height="38" viewBox="0 0 518 520" fill="none">
            <path fill-rule="evenodd" clip-rule="evenodd"
              d="M389.936 67.9424V22.4215C389.936 16.6089 392.245 11.0343 396.356 6.9241C400.466 2.81392 406.04 0.504852 411.853 0.504852C417.666 0.504852 423.24 2.81392 427.35 6.9241C431.461 11.0343 433.77 16.6089 433.77 22.4215V67.9424H473.855C485.481 67.9424 496.63 72.5606 504.85 80.7809C513.07 89.0013 517.689 100.15 517.689 111.776V188.791C517.689 200.416 513.07 211.565 504.85 219.786C496.63 228.006 485.481 232.624 473.855 232.624H349.807C338.182 232.624 327.032 228.006 318.812 219.786C310.592 211.565 305.974 200.416 305.974 188.791V111.776C305.974 100.15 310.592 89.0013 318.812 80.7809C327.032 72.5606 338.182 67.9424 349.807 67.9424H389.914H389.936ZM372.381 180.791C368.022 180.791 363.841 179.06 360.758 175.977C357.675 172.894 355.944 168.713 355.944 164.354V136.301C355.944 131.941 357.675 127.76 360.758 124.677C363.841 121.595 368.022 119.863 372.381 119.863C376.741 119.863 380.921 121.595 384.004 124.677C387.087 127.76 388.819 131.941 388.819 136.301V164.354C388.819 168.713 387.087 172.894 384.004 175.977C380.921 179.06 376.741 180.791 372.381 180.791ZM434.909 164.354C434.909 168.713 436.641 172.894 439.724 175.977C442.806 179.06 446.987 180.791 451.347 180.791C455.706 180.791 459.887 179.06 462.97 175.977C466.052 172.894 467.784 168.713 467.784 164.354V136.301C467.784 131.941 466.052 127.76 462.97 124.677C459.887 121.595 455.706 119.863 451.347 119.863C446.987 119.863 442.806 121.595 439.724 124.677C436.641 127.76 434.909 131.941 434.909 136.301V164.354ZM278.994 82.254C275.1 91.6084 273.104 101.643 273.12 111.776V188.791C273.12 209.135 281.202 228.646 295.588 243.032C309.973 257.418 329.484 265.499 349.829 265.499H435.085C440.871 273.362 444.901 282.377 446.901 291.933C448.902 301.488 448.826 311.362 446.68 320.886C444.533 330.41 440.365 339.362 434.459 347.135C428.552 354.909 421.045 361.323 412.445 365.943C416.019 374.307 417.578 383.394 416.998 392.471C416.418 401.548 413.713 410.362 409.103 418.203C404.493 426.043 398.106 432.692 390.456 437.612C382.806 442.533 374.107 445.588 365.061 446.531V446.86C364.573 446.808 364.083 446.779 363.592 446.772C342.859 446.421 331.726 437.041 326.115 428.45C323.723 424.802 319.98 422.254 315.71 421.367C311.439 420.479 306.991 421.324 303.344 423.716C299.696 426.108 297.148 429.85 296.26 434.121C295.373 438.391 296.218 442.84 298.609 446.487C308.91 462.158 327.364 476.513 355.33 479.209C348.502 491.438 338.531 501.621 326.447 508.704C314.363 515.786 300.606 519.511 286.599 519.491C269.504 519.491 253.68 514.056 240.793 504.829V96.5656C251.752 88.7194 264.814 83.6348 278.994 82.254ZM162.069 81.9034C179.186 81.9034 195.009 87.3387 207.918 96.5875V158.612C208.071 164.159 207.079 169.677 205.005 174.824C202.931 179.971 199.82 184.636 195.864 188.528C188.544 195.914 180.479 199.092 177.016 199.486C174.827 199.673 172.699 200.296 170.755 201.319C168.811 202.342 167.093 203.744 165.7 205.442C164.307 207.141 163.269 209.101 162.647 211.208C162.025 213.314 161.831 215.524 162.077 217.706C162.323 219.889 163.004 222 164.08 223.915C165.155 225.83 166.604 227.51 168.34 228.855C170.076 230.201 172.064 231.185 174.186 231.75C176.309 232.314 178.523 232.448 180.698 232.142C189.245 231.178 198.954 227.277 207.918 221.118V504.807C195.009 514.056 179.208 519.491 162.069 519.491C148.062 519.511 134.305 515.786 122.221 508.704C110.137 501.621 100.165 491.438 93.338 479.209C121.304 476.535 139.779 462.158 150.058 446.487C152.45 442.84 153.295 438.391 152.407 434.121C151.52 429.85 148.972 426.108 145.324 423.716C141.677 421.324 137.229 420.479 132.958 421.367C128.688 422.254 124.945 424.802 122.553 428.45C116.942 437.041 105.809 446.421 85.0754 446.772C84.5849 446.779 84.0949 446.808 83.607 446.86L83.5851 446.553C74.5385 445.609 65.8399 442.555 58.1901 437.634C50.5402 432.714 44.1529 426.065 39.5427 418.225C34.9326 410.384 32.2283 401.57 31.648 392.493C31.0676 383.416 32.6272 374.329 36.2012 365.965C25.3539 360.127 16.2917 351.458 9.97809 340.88C3.66453 330.302 0.335702 318.211 0.345572 305.892C0.345572 282.66 11.8957 262.256 29.5386 249.917C52.5072 238.016 74.0294 243.122 83.5851 252.481C86.7323 255.358 90.8746 256.9 95.1374 256.781C99.4001 256.661 103.45 254.89 106.431 251.84C109.412 248.791 111.091 244.702 111.114 240.438C111.137 236.174 109.502 232.067 106.554 228.986C88.8012 211.606 60.2438 205.623 32.2124 213.644C34.2704 201.066 40.4044 189.512 49.6707 180.761C58.9369 172.009 70.822 166.545 83.4974 165.209C82.8543 154.499 84.4102 143.771 88.0693 133.685C91.7283 123.599 97.4131 114.369 104.774 106.563C112.134 98.7574 121.014 92.5406 130.868 88.2959C140.722 84.0511 151.34 81.8681 162.069 81.8814V81.9034Z"
              fill="#BC86F8" />
          </svg>