<svg xmlns="http://www.w3.org/2000/svg" width="15" height="15" viewBox="0 0 48 48" fill="none">
  <g clip-path="url(#clip0_47_6331)">
    <path
      d="M0.499978 14.42L22.5 39.36C22.6981 39.5695 22.9369 39.7363 23.2016 39.8503C23.4664 39.9643 23.7517 40.0231 24.04 40.0231C24.3283 40.0231 24.6135 39.9643 24.8783 39.8503C25.1431 39.7363 25.3819 39.5695 25.58 39.36L47.58 14.42C47.9066 14.0076 48.0575 13.483 48 12.96C47.9783 12.6936 47.9034 12.4341 47.7797 12.1971C47.6561 11.9601 47.4861 11.7503 47.28 11.58L43.58 8.48003C43.3779 8.30521 43.1428 8.17266 42.8886 8.09021C42.6344 8.00777 42.3662 7.97711 42.1 8.00003C41.835 8.0192 41.5765 8.09098 41.3395 8.21117C41.1026 8.33135 40.892 8.49754 40.72 8.70003L24.38 27.6C24.2789 27.7002 24.1423 27.7564 24 27.7564C23.8577 27.7564 23.7211 27.7002 23.62 27.6L7.27998 8.70003C6.95667 8.31386 6.49956 8.06388 5.99998 8.00003C5.73509 7.97438 5.46775 8.00186 5.21361 8.08085C4.95947 8.15983 4.72366 8.28875 4.51998 8.46003L0.719978 11.58C0.513822 11.7503 0.343887 11.9601 0.22022 12.1971C0.096552 12.4341 0.0216625 12.6936 -2.15699e-05 12.96C-0.0175307 13.2244 0.0176531 13.4896 0.103487 13.7402C0.18932 13.9908 0.324093 14.2219 0.499978 14.42Z"
      fill="#BC86F8" />
  </g>
  <defs>
    <clipPath id="clip0_47_6331">
      <rect width="48" height="48" fill="white" />
    </clipPath>
  </defs>
</svg>
