<svg xmlns="http://www.w3.org/2000/svg" width="20" height="20" viewBox="0 0 276 276" fill="none">
                  <path fill-rule="evenodd" clip-rule="evenodd"
                    d="M96.3125 11.9025C96.343 8.85251 95.1606 5.91533 93.0255 3.73709C90.8904 1.55886 87.9775 0.318002 84.9275 0.287502C81.8775 0.257002 78.9403 1.43936 76.7621 3.57446C74.5839 5.70956 73.343 8.62251 73.3125 11.6725V11.9025V63.71C73.3125 65.9975 72.4038 68.1913 70.7863 69.8088C69.1688 71.4263 66.975 72.335 64.6875 72.335C62.4 72.335 60.2062 71.4263 58.5887 69.8088C56.9712 68.1913 56.0625 65.9975 56.0625 63.71V34.5H28.957C13.662 34.5115 0.678497 47.4835 0.678497 62.79V247.319C0.678497 262.614 13.662 275.609 28.957 275.609H247.043C262.338 275.609 275.322 262.614 275.322 247.319V62.79C275.31 47.495 262.338 34.5 247.043 34.5H217.062V11.9025C217.078 10.3923 216.795 8.89391 216.231 7.49289C215.667 6.09187 214.833 4.81564 213.776 3.73709C211.64 1.55886 208.727 0.318002 205.678 0.287502C204.167 0.2724 202.669 0.554902 201.268 1.11888C199.867 1.68286 198.591 2.51726 197.512 3.57446C195.334 5.70956 194.093 8.62251 194.062 11.6725V11.9025V63.71C194.062 65.9975 193.154 68.1913 191.536 69.8088C189.919 71.4263 187.725 72.335 185.438 72.335C183.15 72.335 180.956 71.4263 179.339 69.8088C177.721 68.1913 176.812 65.9975 176.812 63.71V34.5H96.3125V11.9025ZM23.6785 247.319V108.974H252.322V247.319C252.322 249.918 249.642 252.609 247.043 252.609H28.957C26.358 252.609 23.6785 249.918 23.6785 247.319ZM172.638 152.824C172.624 149.004 173.366 145.22 174.821 141.689C176.276 138.158 178.415 134.949 181.115 132.248C183.815 129.547 187.023 127.407 190.553 125.951C194.084 124.494 197.868 123.751 201.687 123.763C205.507 123.749 209.292 124.492 212.824 125.947C216.356 127.403 219.565 129.543 222.266 132.244C224.968 134.945 227.108 138.154 228.563 141.686C230.019 145.218 230.761 149.003 230.747 152.824C230.761 156.644 230.019 160.429 228.563 163.961C227.108 167.493 224.968 170.702 222.266 173.403C219.565 176.104 216.356 178.244 212.824 179.7C209.292 181.155 205.507 181.898 201.687 181.884C197.868 181.896 194.084 181.153 190.553 179.696C187.023 178.24 183.815 176.1 181.115 173.399C178.415 170.698 176.276 167.489 174.821 163.958C173.366 160.427 172.624 156.643 172.638 152.824ZM121.486 152.824C121.486 143.67 128.846 136.31 138 136.31C147.154 136.31 154.514 143.67 154.514 152.824C154.514 161.978 147.154 169.338 138 169.338C128.846 169.338 121.486 161.978 121.486 152.824ZM121.486 216.614C121.486 207.46 128.846 200.1 138 200.1C147.154 200.1 154.514 207.46 154.514 216.614C154.514 225.768 147.154 233.128 138 233.128C128.846 233.128 121.486 225.768 121.486 216.614ZM185.173 216.614C185.173 207.46 192.533 200.1 201.687 200.1C210.841 200.1 218.201 207.46 218.201 216.614C218.201 225.768 210.841 233.128 201.687 233.128C192.533 233.128 185.173 225.768 185.173 216.614ZM57.799 216.614C57.799 207.46 65.159 200.1 74.313 200.1C83.467 200.1 90.827 207.46 90.827 216.614C90.827 225.768 83.467 233.128 74.313 233.128C65.159 233.128 57.799 225.768 57.799 216.614ZM57.5345 153.1C57.5345 143.946 64.8945 136.586 74.0485 136.586C83.2025 136.586 90.5625 143.946 90.5625 153.1C90.5625 162.254 83.2025 169.614 74.0485 169.614C64.8945 169.614 57.5345 162.254 57.5345 153.1Z"
                    fill="#A0A0A0" />
                </svg>