<svg width="30" height="30" viewBox="0 0 45 30" fill="none" xmlns="http://www.w3.org/2000/svg">
  <path fill-rule="evenodd" clip-rule="evenodd" d="M6.22973 1.39587C4.77303 3.78319 3.25311 7.7687 2.07111 12.3785C0.869798 17.0637 0.0631097 22.2149 0 26.6786C1.15962 28.107 4.31635 30.855 9.53247 32.1441L13.2622 27.482C11.4598 26.8322 9.94311 25.9962 8.99086 25.0439C8.3214 24.3745 8.3214 23.289 8.99086 22.6196C9.66033 21.9501 10.7457 21.9501 11.4152 22.6196C12.1153 23.3196 13.9118 24.2601 16.5646 24.8864L16.587 24.8915C18.2408 25.2801 20.1332 25.5234 22.1246 25.5234C24.1159 25.5234 26.0083 25.2801 27.6621 24.8915L27.6812 24.8871C30.3357 24.2608 32.1333 23.3199 32.8337 22.6196C33.5031 21.9501 34.5885 21.9501 35.2581 22.6196C35.9274 23.289 35.9274 24.3745 35.2581 25.0439C34.3057 25.9962 32.7892 26.8322 30.9868 27.482L34.7168 32.1441C39.9327 30.855 43.0893 28.107 44.2492 26.6786C44.1861 22.2149 43.3794 17.0637 42.178 12.3785C40.9959 7.7687 39.476 3.78319 38.0195 1.39587L37.9173 1.36464C37.4644 1.2288 36.6844 1.03111 35.4673 0.828206C33.0296 0.42192 28.87 0 22.1246 0C15.3791 0 11.2196 0.42192 8.78189 0.828206C7.56451 1.03111 6.78451 1.2288 6.33163 1.36464L6.22973 1.39587ZM13.7065 16.1677C15.6001 16.1677 17.1351 14.6327 17.1351 12.7391C17.1351 10.8456 15.6001 9.31053 13.7065 9.31053C11.813 9.31053 10.2779 10.8456 10.2779 12.7391C10.2779 14.6327 11.813 16.1677 13.7065 16.1677ZM33.9711 12.7391C33.9711 14.6327 32.4362 16.1677 30.5426 16.1677C28.6491 16.1677 27.114 14.6327 27.114 12.7391C27.114 10.8456 28.6491 9.31053 30.5426 9.31053C32.4362 9.31053 33.9711 10.8456 33.9711 12.7391Z" fill="#BB86FC" />
</svg>