<svg width="304" height="304" viewBox="0 0 304 304" fill="none" xmlns="http://www.w3.org/2000/svg">
  <style>
    path {
      fill: #6C6C6C;
      transition: fill 0.3s;
    }
    svg:hover path {
      fill: var(--Primary, #bb86fc);
    }
  </style>
  <g clip-path="url(#clip0_3_2)">
    <path d="M6.33338 177.333H44.3334C46.0131 177.333 47.624 176.666 48.8117 175.479C49.9995 174.291 50.6667 172.68 50.6667 171C50.0319 150.243 44.6134 129.913 34.8334 111.593V65.8668C34.8334 63.3473 33.8325 60.9309 32.0509 59.1493C30.2693 57.3677 27.8529 56.3668 25.3334 56.3668C22.8138 56.3668 20.3975 57.3677 18.6159 59.1493C16.8343 60.9309 15.8334 63.3473 15.8334 65.8668V111.593C6.07218 129.875 0.654269 150.16 4.61827e-05 170.873C-0.0168033 171.716 0.134567 172.553 0.445295 173.336C0.756022 174.119 1.21986 174.832 1.80965 175.434C2.39944 176.036 3.10333 176.513 3.8801 176.84C4.65687 177.166 5.49091 177.334 6.33338 177.333Z" />
    <path d="M268.407 256.753L205.073 235.853C203.994 235.464 202.826 235.388 201.705 235.635C200.585 235.882 199.557 236.44 198.74 237.246L156.307 278.666C155.129 279.789 153.564 280.416 151.937 280.416C150.309 280.416 148.745 279.789 147.567 278.666L104.373 237.5C103.557 236.694 102.529 236.135 101.408 235.888C100.287 235.642 99.1196 235.717 98.04 236.106L35.5934 256.753C26.9554 259.943 19.2118 265.164 13.0167 271.976C6.82167 278.789 2.35707 286.992 2.94e-05 295.893C-0.254802 296.818 -0.296 297.79 -0.120452 298.733C0.0550964 299.677 0.442799 300.568 1.01336 301.34C1.61625 302.112 2.38393 302.741 3.26045 303.179C4.13696 303.617 5.10023 303.854 6.08003 303.873H297.413C298.393 303.854 299.356 303.617 300.233 303.179C301.109 302.741 301.877 302.112 302.48 301.34C303.051 300.568 303.438 299.677 303.614 298.733C303.789 297.79 303.748 296.818 303.493 295.893C301.215 287.032 296.838 278.85 290.731 272.037C284.624 265.225 276.967 259.982 268.407 256.753Z" />
    <!-- Rest of the paths -->
    <path d="M5.19332 38.0001L146.553 62.3201C148.343 62.7845 150.163 63.1231 152 63.3335C153.813 63.4583 155.633 63.4583 157.447 63.3335L298.807 38.0001C300.486 38.0001 302.097 37.3329 303.285 36.1452C304.473 34.9574 305.14 33.3465 305.14 31.6668C305.14 29.9871 304.473 28.3762 303.285 27.1885C302.097 26.0007 300.486 25.3335 298.807 25.3335L157.447 0.633478C153.843 -0.000913709 150.157 -0.000913709 146.553 0.633478L5.19332 25.3335C3.51361 25.3335 1.90271 26.0007 0.714976 27.1885C-0.472755 28.3762 -1.14001 29.9871 -1.14001 31.6668C-1.14001 33.3465 -0.472755 34.9574 0.714976 36.1452C1.90271 37.3329 3.51361 38.0001 5.19332 38.0001Z" />
    <path d="M130.34 184.934C129.204 187.125 128.965 189.672 129.674 192.037C130.384 194.401 131.985 196.396 134.14 197.6C140.126 200.693 146.783 202.259 153.52 202.16C160.214 202.233 166.824 200.668 172.773 197.6C174.681 196.261 176.029 194.268 176.563 192C177.097 189.732 176.778 187.346 175.668 185.298C174.557 183.249 172.733 181.68 170.541 180.889C168.349 180.098 165.943 180.14 163.78 181.007C160.577 182.521 157.062 183.259 153.52 183.16C149.929 183.365 146.347 182.623 143.133 181.007C140.914 179.841 138.324 179.6 135.928 180.335C133.532 181.071 131.523 182.724 130.34 184.934Z" />
    <path d="M120.333 152.76C121.551 152.072 122.925 151.71 124.323 151.71C125.722 151.71 127.096 152.072 128.313 152.76C129.211 153.727 130.3 154.496 131.511 155.019C132.721 155.542 134.028 155.807 135.347 155.797C136.666 155.787 137.968 155.503 139.171 154.962C140.374 154.421 141.452 153.636 142.334 152.656C143.217 151.676 143.886 150.523 144.299 149.27C144.712 148.017 144.859 146.693 144.732 145.38C144.605 144.067 144.205 142.795 143.559 141.645C142.913 140.495 142.035 139.492 140.98 138.7C136.214 134.928 130.286 132.929 124.21 133.045C118.133 133.16 112.286 135.383 107.667 139.333C106.612 140.125 105.734 141.128 105.088 142.278C104.442 143.428 104.042 144.7 103.915 146.013C103.788 147.326 103.935 148.651 104.348 149.904C104.761 151.156 105.43 152.309 106.312 153.289C107.195 154.269 108.273 155.055 109.476 155.595C110.679 156.136 111.981 156.421 113.3 156.43C114.619 156.44 115.926 156.175 117.136 155.652C118.347 155.13 119.436 154.36 120.333 153.393V152.76Z" />
    <path d="M178.22 152.76C179.414 152.071 180.768 151.708 182.147 151.708C183.525 151.708 184.879 152.071 186.073 152.76C187.004 153.593 188.09 154.234 189.269 154.646C190.448 155.059 191.697 155.235 192.944 155.165C194.191 155.094 195.412 154.778 196.537 154.235C197.662 153.692 198.669 152.933 199.5 152C201.029 150.206 201.815 147.895 201.697 145.541C201.579 143.187 200.567 140.966 198.867 139.333C194.144 135.486 188.238 133.385 182.147 133.385C176.055 133.385 170.15 135.486 165.427 139.333C163.786 140.994 162.804 143.194 162.664 145.524C162.524 147.854 163.236 150.155 164.667 152C165.499 152.951 166.513 153.727 167.65 154.281C168.786 154.836 170.021 155.158 171.283 155.228C172.546 155.299 173.809 155.117 175.001 154.693C176.192 154.27 177.286 153.612 178.22 152.76Z" />
    <path d="M35.5932 196.967C34.609 197.271 33.714 197.811 32.9856 198.539C32.2572 199.268 31.7174 200.163 31.4132 201.147C31.1061 202.145 31.0613 203.205 31.2832 204.226C31.505 205.247 31.986 206.193 32.6798 206.973C42.8132 219.64 69.5398 234.84 89.1732 229.14C94.3186 227.508 98.7749 224.21 101.84 219.767C115.346 233.225 133.042 241.671 152 243.707C171.505 241.414 189.623 232.467 203.3 218.373C206.561 222.507 210.966 225.59 215.966 227.24C226.104 228.929 236.506 227.988 246.176 224.506C255.845 221.024 264.46 215.118 271.193 207.353C271.887 206.573 272.368 205.627 272.59 204.606C272.812 203.585 272.767 202.525 272.46 201.527C272.156 200.543 271.616 199.648 270.887 198.919C270.159 198.191 269.264 197.651 268.28 197.347C261.12 193.95 254.878 188.889 250.074 182.587C245.27 176.284 242.044 168.924 240.666 161.12C242.478 156.692 243.466 151.97 243.58 147.187C243.951 140.395 241.682 133.723 237.246 128.567V71.44C237.252 70.9779 237.157 70.5201 236.967 70.0987C236.778 69.6773 236.498 69.3025 236.148 69.0007C235.798 68.699 235.386 68.4775 234.941 68.3518C234.496 68.2262 234.029 68.1994 233.573 68.2734L156.306 81.8267C153.458 82.3338 150.542 82.3338 147.693 81.8267L70.1732 68.2734C69.7169 68.1994 69.2501 68.2262 68.8053 68.3518C68.3605 68.4775 67.9487 68.699 67.5986 69.0007C67.2485 69.3025 66.9688 69.6773 66.779 70.0987C66.5891 70.5201 66.4939 70.9779 66.4998 71.44V127.933C61.7598 133.192 59.2999 140.116 59.6598 147.187C59.9718 152.228 61.2174 157.167 63.3332 161.753C61.833 169.402 58.5351 176.584 53.7118 182.707C48.8884 188.83 42.678 193.717 35.5932 196.967ZM79.9265 141.36C81.5725 140.63 82.9734 139.442 83.9617 137.937C84.9501 136.432 85.4841 134.674 85.4998 132.873V108.3C85.5092 107.81 85.6278 107.329 85.8469 106.89C86.066 106.452 86.3802 106.068 86.7665 105.767C87.178 105.556 87.6339 105.445 88.0965 105.445C88.5591 105.445 89.015 105.556 89.4265 105.767C109.851 111.15 130.878 113.916 152 114C173.117 113.958 194.143 111.234 214.573 105.893C214.985 105.682 215.441 105.572 215.903 105.572C216.366 105.572 216.822 105.682 217.233 105.893C217.619 106.195 217.934 106.579 218.153 107.017C218.372 107.455 218.49 107.937 218.5 108.427V131.48C218.182 133.454 218.487 135.479 219.372 137.272C220.257 139.066 221.679 140.539 223.44 141.487C223.44 141.487 224.96 143.387 224.833 147.06C224.911 149.773 224.302 152.462 223.062 154.876C221.822 157.29 219.991 159.351 217.74 160.867C214.428 162.38 211.54 164.685 209.331 167.579C207.122 170.473 205.659 173.867 205.073 177.46C200.26 206.087 164.54 224.833 151.746 224.833C138.953 224.833 103.233 205.833 98.4198 177.333C97.8336 173.74 96.3713 170.346 94.1621 167.452C91.9529 164.558 89.0648 162.253 85.7532 160.74C83.5021 159.224 81.6713 157.163 80.4311 154.749C79.1908 152.335 78.5815 149.646 78.6598 146.933C78.5 144.99 78.9422 143.044 79.9265 141.36Z" />
  </g>
  <defs>
    <clipPath id="clip0_3_2">
      <rect width="304" height="304" fill="white" />
    </clipPath>
  </defs>
</svg>