<svg xmlns="http://www.w3.org/2000/svg" width="45" height="45" viewBox="0 0 89 86" fill="none">
                      <path
                        d="M44.5789 0.58008C34.1659 0.576986 24.0933 4.28895 16.1724 11.0485C8.2515 17.8081 3.00198 27.1717 1.36779 37.4557C-0.266414 47.7398 1.82192 58.2695 7.25727 67.1514C12.6926 76.0334 21.1184 82.6848 31.0195 85.9098H32.0401C32.9712 85.9552 33.8842 85.6421 34.5916 85.035C35.0171 84.6644 35.3555 84.2042 35.5823 83.6874C35.8092 83.1707 35.919 82.6102 35.9038 82.0461V81.2806V77.3076C35.8745 77.071 35.7981 76.8427 35.6791 76.6361C35.5602 76.4295 35.4011 76.2488 35.2112 76.1047C35.0038 75.9387 34.7625 75.82 34.5044 75.7571C34.2462 75.6941 33.9774 75.6883 33.7168 75.7402C23.9117 77.8543 21.834 71.7307 21.7247 71.3298C20.4917 68.0848 18.2902 65.2979 15.4188 63.3472L14.8721 62.9462C15.3025 62.7383 15.7809 62.6502 16.2572 62.6911C17.1656 62.8277 18.0241 63.194 18.7513 63.7554C19.4785 64.3167 20.0503 65.0545 20.4125 65.8987C21.8226 68.3539 24.13 70.1665 26.8493 70.9551C29.5685 71.7437 32.4877 71.4468 34.9925 70.1269C35.2632 70.0066 35.5026 69.8257 35.6922 69.5982C35.8818 69.3707 36.0166 69.1026 36.086 68.8147C36.2338 67.1415 36.9548 65.5707 38.1272 64.3678C38.3975 64.1347 38.5934 63.8274 38.6906 63.4839C38.7878 63.1405 38.782 62.7761 38.674 62.4359C38.5745 62.0952 38.3757 61.7919 38.103 61.5647C37.8303 61.3375 37.4962 61.1966 37.1431 61.1602C28.5044 60.176 19.647 57.1507 19.647 42.2426C19.5841 38.4937 20.9678 34.8647 23.5107 32.1094C23.7406 31.8577 23.8936 31.5455 23.9517 31.2097C24.0099 30.8738 23.9707 30.5283 23.8388 30.214C22.8293 27.3707 22.8422 24.2644 23.8753 21.4295C27.2412 22.031 30.4007 23.4729 33.0607 25.6213C33.282 25.7726 33.5352 25.8711 33.8007 25.909C34.0661 25.9469 34.3367 25.9233 34.5916 25.84C37.8497 24.9711 41.207 24.53 44.5789 24.5278C47.964 24.5117 51.3358 24.9531 54.6027 25.84C54.8515 25.923 55.1164 25.9464 55.3759 25.9085C55.6355 25.8705 55.8825 25.7721 56.0972 25.6213C58.7538 23.4674 61.9147 22.0249 65.2826 21.4295C66.2838 24.2346 66.2838 27.2996 65.2826 30.1047C65.1507 30.4215 65.115 30.7702 65.1798 31.1072C65.2446 31.4442 65.4071 31.7547 65.6471 32.0001C68.1506 34.7334 69.5191 38.3176 69.4743 42.0239C69.4743 56.9684 60.617 59.9573 51.9418 60.905C51.5888 60.9415 51.2546 61.0823 50.9819 61.3095C50.7093 61.5368 50.5105 61.8401 50.4109 62.1808C50.3059 62.5155 50.3017 62.8737 50.3989 63.2108C50.4961 63.5479 50.6905 63.8489 50.9577 64.0762C51.764 64.9178 52.3798 65.9231 52.7634 67.0236C53.1471 68.1242 53.2895 69.2945 53.1811 70.4549V82.0461C53.173 82.6127 53.2896 83.1742 53.5227 83.6907C53.7557 84.2072 54.0996 84.6662 54.5298 85.035C55.0727 85.4487 55.7062 85.7273 56.378 85.8477C57.0499 85.9681 57.7407 85.927 58.3935 85.7275C68.1811 82.3968 76.4725 75.7068 81.7967 66.8443C87.1209 57.9818 89.1337 47.5198 87.4779 37.3144C85.8222 27.109 80.605 17.8201 72.7519 11.0955C64.8988 4.37089 54.9175 0.645447 44.5789 0.58008Z"
                        fill="#BC86F8" />
                    </svg>