<svg xmlns="http://www.w3.org/2000/svg" width="30" height="30" viewBox="0 0 110 100" fill="none">
  <path fill-rule="evenodd" clip-rule="evenodd" d="M78.905 6.38495C93.89 14.9049 103.125 30.6399 103.125 47.6749C103.125 52.6499 102.35 57.4499 100.91 61.9599C101.939 61.8327 102.983 61.9472 103.959 62.2944C104.936 62.6416 105.818 63.2119 106.535 63.9599C107.638 65.0791 108.335 66.5347 108.516 68.0955C108.698 69.6563 108.352 71.2329 107.535 72.5749C108.555 73.3999 109.295 74.4999 109.675 75.7349L109.76 76.0449C110.06 77.1549 110.36 79.4949 108.76 81.8749C109.98 83.7249 110.155 86.0549 109.225 88.0549C107.95 90.9049 104.76 93.1449 98.585 95.5549L97.575 95.9449L96.92 96.1849C94.53 97.0499 92.47 97.66 91.615 97.91L91.185 98.03C86.735 99.245 82.145 99.9049 77.525 99.9999C70.925 99.9999 66.025 98.1999 62.91 94.6649C57.6498 95.5558 52.2799 95.5862 47.01 94.7549C43.89 98.2349 39.01 99.9999 32.47 99.9999C28.1835 99.9144 23.9208 99.339 19.765 98.2849L18.66 97.9849L17.295 97.5849C15.312 96.9836 13.3523 96.3082 11.42 95.5599C5.235 93.1449 2.045 90.9099 0.770002 88.0549C-0.159998 86.0549 0.0150017 83.7199 1.235 81.8749C0.659019 81.0322 0.271533 80.0751 0.0989616 79.069C-0.0736098 78.063 -0.0272085 77.0315 0.235002 76.0449C0.580002 74.6799 1.365 73.4649 2.47 72.5749C1.65405 71.2334 1.30932 69.6578 1.49048 68.0981C1.67163 66.5384 2.36829 65.0838 3.47 63.965C4.635 62.725 6.255 62.0099 8.055 61.9299L8.445 61.9249C6.98191 57.3167 6.23982 52.5099 6.245 47.6749C6.245 30.6399 15.48 14.9049 30.465 6.38495C37.8499 2.19889 46.1937 -0.00146484 54.6825 -0.00146484C63.1713 -0.00146484 71.5201 2.19889 78.905 6.38495ZM15.94 63.79C16.565 67.225 27.725 75.5399 26.64 77.3249C25.69 78.8999 22.66 76.1299 21.9 75.3949L21.695 75.1949L20.855 74.4599C18.05 72.0649 9.335 64.96 7.155 67.3C5.005 69.6 7.75 71.5949 12.43 74.3999L16.35 76.7349L17.03 77.1499C22.255 80.3649 22.63 81.3499 21.78 82.7149C20.84 84.1899 6.43 72.2149 5.08 77.2999C3.73 82.3549 19.79 83.8199 18.8 87.3299C17.8 90.8299 7.475 80.71 5.375 84.645C3.25 88.595 19.94 93.2349 20.075 93.2699L20.875 93.4699L21.75 93.6799C27.885 95.0999 39.575 96.9299 43.925 90.6599C47.29 85.7949 47.125 82.1149 42.685 77.6099L42.4 77.3249C37.675 72.6849 34.925 65.8849 34.925 65.8849L34.84 65.595L34.715 65.235C34.305 64.135 33.295 62.04 31.565 62.315C29.265 62.68 27.575 68.3649 32.165 71.9799L32.415 72.1699C37.3 75.7749 31.44 78.2199 29.55 74.8399L29.26 74.3199L28.545 73.0699C26.23 69.0749 22.135 62.515 19.85 61.085C17.19 59.425 15.315 60.345 15.94 63.79ZM90.15 61.085C87.485 62.76 82.335 71.4549 80.45 74.8399C80.1256 75.4366 79.6123 75.9087 78.9906 76.182C78.3688 76.4553 77.6739 76.5144 77.015 76.3499C76.6874 76.2575 76.3861 76.0897 76.135 75.86C76.0408 75.7708 75.9585 75.67 75.89 75.5599L75.82 75.4199L75.78 75.3199L75.745 75.2249L75.73 75.1599L75.715 75.0749C75.7017 74.9956 75.695 74.9154 75.695 74.8349C75.695 74.2349 76.05 73.505 76.945 72.7C77.075 72.58 77.215 72.4649 77.365 72.3499L77.6 72.1699C77.71 72.0899 77.815 72.0099 77.915 71.9249C82.33 68.3749 80.78 62.8749 78.57 62.3399L78.415 62.3099L78.135 62.2899C78.031 62.2912 77.9273 62.3012 77.825 62.32L77.685 62.3449L77.475 62.4149L77.28 62.4999L77.14 62.575L77 62.6699L76.82 62.805L76.705 62.905C75.84 63.695 75.34 65.045 75.155 65.615L75.075 65.8849C75.075 65.8849 72.425 72.4299 67.88 77.0549L67.61 77.3249C65.785 79.1149 64.63 80.7749 64.1 82.4149C63.385 84.5999 63.77 86.7549 65.15 89.1799C65.425 89.6649 65.735 90.1549 66.085 90.6599C70.495 97.0349 82.495 95.0399 88.555 93.6099L89.985 93.2599L91.235 92.8899C92.615 92.4699 94.915 91.725 97.235 90.79L98.175 90.4049L98.5 90.2649L98.82 90.1249L99.44 89.8449L99.845 89.6549C102.49 88.3949 104.665 86.9399 104.815 85.5199L104.82 85.34C104.816 85.0967 104.752 84.8581 104.635 84.645C104.165 83.765 103.28 83.5849 102.18 83.8049L101.955 83.8549C101.735 83.9049 101.505 83.975 101.275 84.055L100.79 84.2299L100.52 84.3399C97.725 85.4899 94.33 87.865 92.485 88.065H92.515C92.432 88.0746 92.3485 88.0796 92.265 88.0799H92.145L92.025 88.065L91.91 88.0399C91.57 87.9599 91.33 87.7399 91.21 87.3299C91.1633 87.1674 91.1548 86.9963 91.185 86.8299C91.495 85.1049 95.975 83.8549 99.75 82.2799L100.08 82.1399C102.72 81.0199 104.93 79.7249 105.005 77.9799V77.7799C104.996 77.6142 104.969 77.45 104.925 77.2899C104.685 76.3899 104.05 76.035 103.125 76.035C99.2 76.035 90.375 82.8349 88.525 82.8349C88.4 82.8349 88.285 82.7999 88.235 82.7149C88.1463 82.5749 88.0694 82.4277 88.005 82.2749C87.505 81.0849 88.345 79.9649 93.305 76.9449L94.35 76.3149C97.04 74.7149 99.4 73.3749 101.055 72.1599C102.505 71.0999 103.43 70.13 103.57 69.16L103.585 69.02C103.625 68.455 103.395 67.885 102.85 67.3C102.749 67.1911 102.631 67.0998 102.5 67.0299L102.33 66.955L102.265 66.9299C102.055 66.8612 101.836 66.8275 101.615 66.83C100.805 66.83 99.77 67.1799 98.64 67.7299C95.455 69.2949 91.485 72.4899 89.51 74.1549L88.265 75.2299L88.1 75.3949C87.7 75.7849 86.66 76.7449 85.635 77.3249L85.28 77.51L85.075 77.6049C84.8795 77.689 84.6748 77.7494 84.465 77.7849H84.49C84.4386 77.7923 84.3869 77.7973 84.335 77.7999L84.385 77.7949L84.32 77.7999C83.925 77.8249 83.595 77.6949 83.37 77.3249C83.3146 77.2261 83.2902 77.1128 83.3 76.9999C83.435 74.6749 93.47 67.045 94.06 63.79L94.105 63.55C94.605 60.3 92.75 59.465 90.15 61.085ZM54.69 4.91995C30.7 4.91995 11.25 24.0649 11.25 47.6699C11.25 51.1299 11.665 54.4899 12.45 57.7099L12.49 57.665C13.75 56.175 15.55 55.3649 17.575 55.3649C19.35 55.4049 21.07 55.9499 22.54 56.9249C23.64 57.6249 24.865 58.8449 26.115 60.3949C27.42 58.5349 29.565 57.405 31.865 57.37C36.125 57.37 38.7 61.0099 39.675 64.2849L39.91 64.8099L40.21 65.445C41.17 67.425 43.185 71.1399 45.925 73.8449C51.225 79.0449 52.545 84.4199 49.925 90.1749C53.2899 90.5381 56.6854 90.5146 60.045 90.1049C57.52 84.5049 58.745 79.2549 63.745 74.1749L64.075 73.8449C67.55 70.4249 69.86 65.3949 70.335 64.2849C71.31 61.0099 73.875 57.37 78.135 57.37C80.435 57.405 82.58 58.5349 83.885 60.3949C85.135 58.8449 86.36 57.6299 87.475 56.9249C88.9447 55.9483 90.6608 55.4074 92.425 55.3649C94.21 55.3649 95.835 55.9949 97.05 57.1649C97.75 54.1149 98.125 50.9399 98.125 47.6749C98.125 24.0649 78.675 4.91995 54.69 4.91995ZM63.975 49.5499L66.17 48.4899C68.935 47.1699 70.62 46.5749 70.62 49.2499C70.62 54.7149 66.765 65.29 54.845 65.56H53.925C42.3 65.3 38.345 55.2599 38.145 49.6849L38.14 49.2499C38.14 43.7149 45.4 52.18 54.39 52.18C57.97 52.18 61.285 50.8199 63.975 49.5499ZM84.06 33.8349C86.31 33.8349 88.125 35.625 88.125 37.835C88.125 40.04 86.305 41.8349 84.06 41.8349C83.5308 41.8389 83.0059 41.7386 82.5155 41.5397C82.025 41.3408 81.5786 41.0473 81.2015 40.6758C80.8245 40.3044 80.5244 39.8623 80.3182 39.3749C80.112 38.8875 80.0039 38.3642 80 37.835C80 35.625 81.82 33.8349 84.06 33.8349ZM25.94 33.8349C28.18 33.8349 30 35.625 30 37.835C30 40.04 28.18 41.8349 25.94 41.8349C25.4104 41.8396 24.885 41.7397 24.394 41.5411C23.9029 41.3426 23.4559 41.0491 23.0783 40.6776C22.7008 40.3061 22.4002 39.8638 22.1937 39.3761C21.9872 38.8883 21.8789 38.3646 21.875 37.835C21.875 35.625 23.695 33.8349 25.94 33.8349ZM64.89 29.6299C66.49 27.7099 69.12 26.9299 71.54 27.6599C73.955 28.3899 75.69 30.4799 75.93 32.9599C76.17 35.4349 74.87 37.8099 72.635 38.9749C71.025 39.8149 70.4 36.5899 68.8 36.0499L68.81 36.0349C67.375 35.5449 64.95 37.845 64.185 36.43C63.6059 35.3571 63.363 34.1349 63.4878 32.9222C63.6126 31.7094 64.1045 30.5623 64.89 29.6299ZM43.275 29.6299C44.885 31.5499 45.16 34.23 43.975 36.43C43.215 37.845 40.775 35.5449 39.35 36.0349L39.365 36.0499C38.825 36.2299 38.395 36.7199 38 37.2499L37.41 38.0749C36.86 38.8249 36.31 39.3849 35.525 38.9749C34.4389 38.4139 33.5453 37.541 32.959 36.4683C32.3727 35.3956 32.1206 34.1721 32.235 32.9549C32.475 30.4799 34.21 28.3899 36.625 27.6599C37.8047 27.303 39.0632 27.2993 40.2449 27.6494C41.4267 27.9995 42.4801 28.688 43.275 29.6299Z" fill="#BB86FC"/>
</svg>