<svg width="30" height="30" viewBox="0 0 46 48" fill="none" xmlns="http://www.w3.org/2000/svg">
  <path fill-rule="evenodd" clip-rule="evenodd" d="M8.98873 8.09681C9.87731 7.18083 10.3699 5.95207 10.36 4.67592C10.3137 3.438 9.7963 2.2645 8.91358 1.39536C8.03086 0.526214 6.84947 0.0270781 5.61097 0C4.36883 0.0265819 3.1833 0.524482 2.29465 1.39277C1.40601 2.26105 0.880787 3.43474 0.825439 4.67592C0.843319 5.94987 1.34992 7.16822 2.24055 8.07926C3.13119 8.9903 4.33777 9.52433 5.61097 9.57106C6.88681 9.5423 8.10011 9.01275 8.98873 8.09681ZM4.72163 15.8777C2.71078 15.8321 1.33687 15.8011 1.33687 18.2654V45.6634C1.33687 48.0768 2.647 48.0267 4.53495 47.9551C4.87619 47.9421 5.2363 47.9283 5.61097 47.9283C5.98633 47.9283 6.34619 47.9421 6.68655 47.9551C8.56544 48.0267 9.84855 48.0758 9.84855 45.6634V18.2654C9.84855 15.8016 8.50325 15.8321 6.50003 15.8777C6.21625 15.8841 5.91923 15.8909 5.61097 15.8909C5.30319 15.8909 5.00603 15.8842 4.72163 15.8777ZM18.7255 15.9275C17.8122 16.1101 17.2277 16.6946 17.2277 18.2654V45.6634C17.2277 48.0744 18.4832 48.0271 20.3745 47.9551C20.7183 47.9421 21.0832 47.9283 21.4653 47.9283C21.8467 47.9283 22.2118 47.9421 22.5565 47.9551C24.4569 48.0271 25.7394 48.0754 25.7394 45.6634V31.0512C25.6667 30.3045 25.7535 29.5509 25.9939 28.8403C26.2344 28.1296 26.623 27.4782 27.1342 26.9291C27.6453 26.3799 28.2673 25.9456 28.9589 25.6549C29.6505 25.3642 30.3959 25.2237 31.1459 25.2428C31.8994 25.1981 32.6537 25.3161 33.3573 25.5888C34.0612 25.8614 34.6982 26.2823 35.2248 26.8229C35.7518 27.3635 36.156 28.0112 36.4101 28.7218C36.6645 29.4325 36.7629 30.1895 36.6984 30.9416V45.5537C36.6984 47.965 37.954 47.9174 39.8455 47.8457C40.1891 47.8327 40.5539 47.8186 40.9362 47.8186C41.3184 47.8186 41.6832 47.8327 42.0271 47.8457C43.9183 47.9174 45.1739 47.965 45.1739 45.5537V26.8501C45.2431 25.3145 44.9887 23.7814 44.4271 22.3504C43.8655 20.9194 43.0091 19.6227 41.9133 18.5443C40.8179 17.466 39.5075 16.6301 38.0678 16.0912C36.6282 15.5523 35.0915 15.3222 33.5568 15.416C31.9944 15.2739 30.4216 15.5352 28.9889 16.1748C27.5561 16.8144 26.3115 17.8109 25.3741 19.0691C25.4106 17.7175 24.9722 15.9275 23.8763 15.9275C23.5621 15.9275 23.0796 15.9124 22.5297 15.8953C21.1619 15.8527 19.3769 15.7972 18.7255 15.9275Z" fill="#BB86FC" />
</svg>