<svg xmlns="http://www.w3.org/2000/svg" width="36" height="36" viewBox="0 0 248 372" fill="none">
            <path
              d="M201.5 0H46.5C34.1674 0 22.34 4.89909 13.6195 13.6195C4.89909 22.34 0 34.1674 0 46.5V325.5C0 337.833 4.89909 349.66 13.6195 358.38C22.34 367.101 34.1674 372 46.5 372H201.5C213.833 372 225.66 367.101 234.38 358.38C243.101 349.66 248 337.833 248 325.5V46.5C248 34.1674 243.101 22.34 234.38 13.6195C225.66 4.89909 213.833 0 201.5 0ZM217 294.5C217 296.555 216.183 298.527 214.73 299.98C213.277 301.434 211.305 302.25 209.25 302.25H38.75C36.6946 302.25 34.7233 301.434 33.2699 299.98C31.8165 298.527 31 296.555 31 294.5V54.25C31 52.1946 31.8165 50.2233 33.2699 48.7699C34.7233 47.3165 36.6946 46.5 38.75 46.5H209.25C211.305 46.5 213.277 47.3165 214.73 48.7699C216.183 50.2233 217 52.1946 217 54.25V294.5Z"
              fill="#BC86F8" />
          </svg>