<svg xmlns="http://www.w3.org/2000/svg" width="40" height="45" viewBox="0 0 101 151" fill="none">
  <path
    d="M20.0916 148.475L98.0291 79.7246C98.6835 79.1055 99.2048 78.3594 99.561 77.5319C99.9173 76.7044 100.101 75.813 100.101 74.9121C100.101 74.0112 99.9173 73.1198 99.561 72.2923C99.2048 71.4649 98.6835 70.7188 98.0291 70.0996L20.0916 1.34961C18.8026 0.329025 17.1634 -0.142517 15.5291 0.0371094C14.6964 0.104874 13.8857 0.338898 13.145 0.725357C12.4043 1.11183 11.7485 1.64287 11.2166 2.28711L1.52909 13.8496C0.982761 14.4812 0.568544 15.2159 0.31091 16.0103C0.0532761 16.8046 -0.0425478 17.6426 0.0290961 18.4746C0.0890037 19.3027 0.313299 20.1105 0.688884 20.851C1.06447 21.5914 1.58382 22.2496 2.2166 22.7871L61.2791 73.8496C61.5921 74.1656 61.7676 74.5924 61.7676 75.0371C61.7676 75.4819 61.5921 75.9086 61.2791 76.2246L2.2166 127.287C1.00979 128.297 0.228604 129.726 0.0290961 131.287C-0.0510577 132.115 0.0348002 132.95 0.281638 133.745C0.528476 134.539 0.931329 135.276 1.4666 135.912L11.2166 147.787C11.7485 148.431 12.4043 148.962 13.145 149.349C13.8857 149.735 14.6964 149.969 15.5291 150.037C16.3552 150.092 17.1839 149.982 17.9671 149.714C18.7504 149.445 19.4725 149.024 20.0916 148.475Z"
    fill="#BC86F8" />
</svg>
