<svg xmlns="http://www.w3.org/2000/svg" width="101" height="151" viewBox="0 0 101 151" fill="none">
<path d="M80.01 1.57617L2.07246 70.3262C1.41804 70.9453 0.896774 71.6914 0.540527 72.5189C0.18428 73.3464 0.000534058 74.2378 0.000534058 75.1387C0.000534058 76.0396 0.18428 76.931 0.540527 77.7585C0.896774 78.5859 1.41804 79.332 2.07246 79.9512L80.01 148.701C81.299 149.722 82.9382 150.193 84.5725 150.014C85.4052 149.946 86.2159 149.712 86.9566 149.325C87.6973 148.939 88.353 148.408 88.885 147.764L98.5725 136.201C99.1188 135.57 99.533 134.835 99.7907 134.041C100.048 133.246 100.144 132.408 100.072 131.576C100.013 130.748 99.7883 129.94 99.4127 129.2C99.0371 128.459 98.5177 127.801 97.885 127.264L38.8225 76.2012C38.5095 75.8852 38.3339 75.4584 38.3339 75.0137C38.3339 74.5689 38.5095 74.1422 38.8225 73.8262L97.885 22.7637C99.0918 21.7533 99.873 20.3249 100.072 18.7637C100.153 17.9359 100.067 17.1004 99.8199 16.3063C99.5731 15.5121 99.1702 14.7752 98.635 14.1387L88.885 2.26367C88.353 1.61943 87.6973 1.08838 86.9566 0.701919C86.2159 0.315458 85.4052 0.0814283 84.5725 0.0136655C83.7464 -0.0410506 82.9177 0.0688987 82.1344 0.337129C81.3512 0.605359 80.6291 1.02652 80.01 1.57617Z" fill="#BC86F8" />
</svg>