          <svg xmlns="http://www.w3.org/2000/svg" width="38" height="38" viewBox="0 0 527 526" fill="none">
            <path fill-rule="evenodd" clip-rule="evenodd"
              d="M141.73 19.2439L151.05 47.2027C153.38 56.5223 165.029 63.5342 174.349 61.1821L202.308 54.1924C227.959 49.5326 244.268 77.4914 227.959 96.1528L206.99 117.122C203.623 120.542 201.737 125.149 201.737 129.947C201.737 134.746 203.623 139.353 206.99 142.773L227.959 163.742C244.29 182.381 227.959 212.692 202.33 205.68L174.371 203.373C165.051 201.043 153.38 205.703 151.072 217.352L141.73 245.311C140.399 250.798 137.262 255.679 132.823 259.17C128.385 262.66 122.902 264.558 117.255 264.558C111.608 264.558 106.126 262.66 101.687 259.17C97.2483 255.679 94.1114 250.798 92.78 245.311L83.4604 217.352C81.1305 208.032 69.481 201.043 60.1614 203.373L32.2026 210.362C6.52928 215.022 -9.75784 187.063 6.52928 168.424L27.4984 147.433C30.8579 144.014 32.7403 139.412 32.7403 134.618C32.7403 129.825 30.8579 125.223 27.4984 121.804L8.88137 96.1306C-7.42794 77.4914 8.88137 47.1805 34.5103 54.1924L62.4691 61.1821C71.7887 63.512 83.4604 58.8522 85.7903 47.2027L95.1099 19.2217C99.7697 -6.40723 134.74 -6.40723 141.708 19.2217L141.73 19.2439ZM152.226 132.277C152.343 136.942 151.526 141.584 149.822 145.928C148.118 150.272 145.562 154.232 142.304 157.573C139.046 160.914 135.152 163.569 130.852 165.382C126.552 167.195 121.933 168.129 117.266 168.129C112.6 168.129 107.98 167.195 103.68 165.382C99.3803 163.569 95.4866 160.914 92.2287 157.573C88.9707 154.232 86.4144 150.272 84.7104 145.928C83.0063 141.584 82.189 136.942 82.3065 132.277C82.6292 123.224 86.4525 114.649 92.9714 108.358C99.4903 102.068 108.196 98.5522 117.255 98.5522C126.314 98.5522 135.02 102.068 141.539 108.358C148.058 114.649 151.881 123.224 152.204 132.277H152.226ZM52.1288 357.39V239.675L55.546 238.832L60.9602 255.119C66.7961 275.245 80.487 288.248 96.5079 294.172V340.038H433.123V155.199C433.123 150.606 428.264 145.724 423.559 145.724H256.162C254.716 143.801 253.16 141.964 251.502 140.221L241.25 129.947L251.502 119.696C256.614 114.332 260.758 108.124 263.75 101.345H423.559C452.694 101.345 477.48 126.02 477.48 155.221V357.168L521.859 449.788C522.081 450.231 522.303 450.675 522.458 451.119C528.516 466.23 530.003 485.646 517.488 502.288C508.39 514.403 493.989 525.942 472.221 525.942H59.4957C40.568 525.942 23.8815 515.136 14.229 502.288C2.13575 486.178 2.64611 464.566 9.81333 449.854L52.1288 357.39ZM232.685 429.395C228.271 429.395 224.038 431.149 220.917 434.27C217.796 437.391 216.043 441.624 216.043 446.038C216.043 450.451 217.796 454.684 220.917 457.805C224.038 460.926 228.271 462.68 232.685 462.68H299.032C303.446 462.68 307.679 460.926 310.8 457.805C313.921 454.684 315.674 450.451 315.674 446.038C315.674 441.624 313.921 437.391 310.8 434.27C307.679 431.149 303.446 429.395 299.032 429.395H232.685ZM292.353 201.087C292.353 196.673 294.106 192.44 297.227 189.319C300.348 186.198 304.581 184.445 308.995 184.445H397.442C401.856 184.445 406.089 186.198 409.21 189.319C412.331 192.44 414.084 196.673 414.084 201.087C414.084 205.501 412.331 209.734 409.21 212.855C406.089 215.976 401.856 217.729 397.442 217.729H308.995C304.581 217.729 300.348 215.976 297.227 212.855C294.106 209.734 292.353 205.501 292.353 201.087ZM308.995 261.687C304.581 261.687 300.348 263.44 297.227 266.561C294.106 269.682 292.353 273.915 292.353 278.329C292.353 282.743 294.106 286.976 297.227 290.097C300.348 293.218 304.581 294.971 308.995 294.971H364.291C368.705 294.971 372.938 293.218 376.059 290.097C379.18 286.976 380.933 282.743 380.933 278.329C380.933 273.915 379.18 269.682 376.059 266.561C372.938 263.44 368.705 261.687 364.291 261.687H308.995ZM204.637 279.239C204.637 274.825 206.391 270.592 209.512 267.471C212.633 264.35 216.866 262.597 221.28 262.597H243.469C245.655 262.597 247.819 263.027 249.838 263.863C251.857 264.7 253.692 265.926 255.237 267.471C256.782 269.016 258.008 270.851 258.845 272.87C259.681 274.889 260.111 277.053 260.111 279.239C260.111 281.424 259.681 283.588 258.845 285.607C258.008 287.626 256.782 289.461 255.237 291.007C253.692 292.552 251.857 293.778 249.838 294.614C247.819 295.45 245.655 295.881 243.469 295.881H221.28C216.866 295.881 212.633 294.128 209.512 291.007C206.391 287.885 204.637 283.652 204.637 279.239Z"
              fill="#BC86F8" />
          </svg>