<svg width="30" height="30" viewBox="0 0 324 324" fill="none" xmlns="http://www.w3.org/2000/svg">
              <g clip-path="url(#clip0_4_11)">
                <path
                  d="M290.25 11.61C270 7.42502 255.42 2.97002 238.275 2.39313e-05C236.34 -0.293652 234.365 -0.163153 232.485 0.382481C230.606 0.928114 228.867 1.87583 227.391 3.15998C225.914 4.44412 224.734 6.03399 223.933 7.81942C223.131 9.60484 222.728 11.5431 222.75 13.5V65.61C222.75 67.4002 222.039 69.1171 220.773 70.383C219.507 71.6489 217.79 72.36 216 72.36C214.21 72.36 212.493 71.6489 211.227 70.383C209.961 69.1171 209.25 67.4002 209.25 65.61V25.11H202.5C198.92 25.11 195.486 26.5323 192.954 29.0641C190.422 31.5958 189 35.0296 189 38.61V104.49L222.75 129.735C224.774 131.373 226.424 133.425 227.588 135.753C228.753 138.082 229.404 140.633 229.5 143.235V166.86H290.25V126.36L303.75 106.11V31.86C303.75 22.005 303.075 15.93 290.25 11.61Z"
                  fill="#6C6C6C" />
                <path
                  d="M126.225 33.6151L105.975 20.1151H31.725C22.005 20.1151 15.795 20.7901 11.475 33.6151C7.29002 54.0001 2.97002 68.4451 2.39313e-05 85.5901C-0.293652 87.5249 -0.163153 89.5005 0.382481 91.3799C0.928114 93.2593 1.87583 94.9976 3.15998 96.4743C4.44412 97.9511 6.03399 99.1311 7.81942 99.9324C9.60484 100.734 11.5431 101.137 13.5 101.115H65.475C67.2652 101.115 68.9821 101.826 70.248 103.092C71.5139 104.358 72.225 106.075 72.225 107.865C72.225 109.655 71.5139 111.372 70.248 112.638C68.9821 113.904 67.2652 114.615 65.475 114.615H24.975V121.5C24.975 125.081 26.3973 128.514 28.9291 131.046C31.4608 133.578 34.8946 135 38.475 135H104.355L129.6 101.115C131.238 99.091 133.29 97.4412 135.618 96.2769C137.947 95.1125 140.498 94.4606 143.1 94.3651H166.86V33.6151H126.225Z"
                  fill="#6C6C6C" />
                <path
                  d="M101.115 194.265C99.0637 192.652 97.3946 190.605 96.2275 188.271C95.0605 185.937 94.4245 183.374 94.3651 180.765V157.14H33.6151V197.64L20.1151 217.89V292.14C20.1151 301.995 20.7901 308.07 33.6151 312.39C53.8651 316.575 68.4451 321.03 85.5901 323.595C87.5249 323.889 89.5005 323.758 91.3799 323.213C93.2593 322.667 94.9976 321.719 96.4743 320.435C97.9511 319.151 99.1311 317.561 99.9324 315.776C100.734 313.99 101.137 312.052 101.115 310.095V258.39C101.115 256.6 101.826 254.883 103.092 253.617C104.358 252.351 106.075 251.64 107.865 251.64C109.655 251.64 111.372 252.351 112.638 253.617C113.904 254.883 114.615 256.6 114.615 258.39V298.89H121.5C125.081 298.89 128.514 297.468 131.046 294.936C133.578 292.404 135 288.97 135 285.39V219.51L101.115 194.265Z"
                  fill="#6C6C6C" />
                <path
                  d="M310.5 222.615H258.525C256.735 222.615 255.018 221.904 253.752 220.638C252.486 219.372 251.775 217.655 251.775 215.865C251.775 214.075 252.486 212.358 253.752 211.092C255.018 209.826 256.735 209.115 258.525 209.115H299.025V202.5C299.025 198.92 297.603 195.486 295.071 192.954C292.539 190.422 289.105 189 285.525 189H219.645L194.4 222.75C192.762 224.774 190.71 226.424 188.382 227.588C186.053 228.753 183.502 229.404 180.9 229.5H157.14V290.25H197.64L217.89 303.75H292.14C301.86 303.75 308.07 303.75 312.39 290.25C316.575 270 320.895 255.42 323.595 238.275C323.905 236.364 323.8 234.408 323.288 232.541C322.776 230.674 321.868 228.938 320.626 227.453C319.383 225.968 317.836 224.767 316.089 223.932C314.342 223.097 312.436 222.648 310.5 222.615Z"
                  fill="#6C6C6C" />
              </g>
              <defs>
                <clipPath id="clip0_4_11">
                  <rect width="324" height="324" fill="white" />
                </clipPath>
              </defs>
            </svg>